Coordinates
version=1
nRows=12
nColumns=24
inDegrees=yes

Units are S.I. units (second, meters, Newtons, ...)
Angles are in degrees.

endheader
time	pelvis_tilt	pelvis_list	pelvis_rotation	pelvis_tx	pelvis_ty	pelvis_tz	hip_flexion_r	hip_adduction_r	hip_rotation_r	knee_angle_r	ankle_angle_r	subtalar_angle_r	mtp_angle_r	hip_flexion_l	hip_adduction_l	hip_rotation_l	knee_angle_l	ankle_angle_l	subtalar_angle_l	mtp_angle_l	lumbar_extension	lumbar_bending	lumbar_rotation
      1.16733333	     -3.22202715	     -2.10575977	     -2.28461956	     -0.04981311	      0.99752079	      0.28587115	    -16.64297002	      7.66102498	      2.00308147	     -1.73583519	     13.52899997	     -0.71075938	      2.20390154	     22.91622299	     -0.95468943	     -3.38499834	     10.09632369	      3.76044133	     -3.34840762	     -3.84647590	     -0.01839817	      0.94869279	      7.14429439
      1.17150000	     -3.20949917	     -1.93141438	     -2.36414449	     -0.04392599	      0.99668437	      0.28579094	    -16.83484453	      7.43333971	      2.03181197	     -2.08582704	     13.66206501	     -0.72764538	      2.20941582	     23.01553130	     -0.70114515	     -3.35423327	      9.52725856	      3.91193012	     -3.49192817	     -3.81905533	      0.00336402	      0.73757443	      7.16971568
      1.17566667	     -3.19129322	     -1.73785315	     -2.43128395	     -0.03798639	      0.99588991	      0.28565497	    -16.98223316	      7.17902079	      1.86464075	     -2.54849574	     13.99905672	     -0.33401962	      2.23777315	     23.14368104	     -0.42268100	     -3.46046968	      8.83158481	      4.09265529	     -3.37468415	     -3.65333054	      0.06070528	      0.48539505	      7.35824847
      1.17983333	     -3.15749829	     -1.54820992	     -2.49636058	     -0.03203927	      0.99514602	      0.28557467	    -17.16199095	      6.94311963	      1.85254400	     -2.96781224	     14.11155304	     -0.36796882	      2.24698231	     23.24383739	     -0.15712767	     -3.44961443	      8.11449675	      4.16953046	     -3.51725043	     -3.59583632	      0.07552784	      0.23306976	      7.37460944
      1.18400000	     -3.12834395	     -1.32867930	     -2.55124366	     -0.02604032	      0.99443247	      0.28542842	    -17.28889765	      6.66741213	      1.66102009	     -3.49092910	     14.38462107	     -0.01329507	      2.29632464	     23.37984401	      0.14306633	     -3.57512806	      7.29672426	      4.23984973	     -3.41293614	     -3.29616797	      0.09886133	     -0.03662615	      7.51545853
      1.18816667	     -3.08778146	     -1.11341082	     -2.58761235	     -0.02000526	      0.99375542	      0.28529795	    -17.46524806	      6.41467135	      1.66328763	     -3.93076015	     14.44479052	     -0.09932346	      2.30548655	     23.48352465	      0.43838285	     -3.54217865	      6.49186261	      4.20353236	     -3.56810511	     -3.24259932	      0.09430128	     -0.29892859	      7.52712883
      1.19233333	     -3.04663456	     -0.87954761	     -2.62860216	     -0.01390887	      0.99312037	      0.28515156	    -17.57960436	      6.13081057	      1.44869387	     -4.50956619	     14.68668369	      0.23516235	      2.40467541	     23.60254957	      0.74824931	     -3.63135157	      5.62927990	      4.11186646	     -3.57034863	     -2.72145411	      0.14759107	     -0.61810557	      7.65982928
      1.19650000	     -2.98900037	     -0.64821788	     -2.64257076	     -0.00779407	      0.99252976	      0.28500953	    -17.75245396	      5.87350051	      1.43867092	     -4.99405090	     14.70511528	      0.09522134	      2.42076869	     23.69421782	      1.05948973	     -3.58748074	      4.76982184	      3.96659289	     -3.73802960	     -2.63859810	      0.15642091	     -0.93176008	      7.65947679
      1.20066667	     -2.90255851	     -0.39417388	     -2.65000774	     -0.00160755	      0.99201798	      0.28483851	    -17.92881328	      5.58516961	      1.31399475	     -5.53686393	     14.73361140	      0.17475328	      3.25512020	     23.73417627	      1.39608870	     -3.51979571	      3.95417716	      3.56305574	     -4.03158321	      1.08204783	      0.11634597	     -1.28117177	      7.59587528
      1.20483333	     -2.88500620	     -0.15321963	     -2.65738845	      0.00458795	      0.99145141	      0.28467885	    -18.02677893	      5.32410442	      1.30300941	     -6.08909583	     14.73482948	      0.04612659	      3.27084188	     23.87337164	      1.71066900	     -3.47700153	      3.06445773	      3.26627138	     -4.22128291	      1.10958540	      0.20649493	     -1.59969466	      7.68487479
      1.20900000	     -2.84723336	      0.08974066	     -2.66376018	      0.01079945	      0.99096052	      0.28448791	    -18.10938594	      5.05469696	      1.21172719	     -6.71393686	     14.72559927	      0.03925226	      3.35108612	     23.95628464	      2.03199584	     -3.28585393	      2.24677970	      2.78916381	     -4.70326456	      1.25421167	      0.25052622	     -1.90612580	      7.79158887
      1.21316667	     -2.80176993	      0.34534900	     -2.65442443	      0.01705897	      0.99052993	      0.28427336	    -18.19795149	      4.77894824	      1.13426429	     -7.34031703	     14.65234045	     -0.02915840	      3.45511646	     24.03365790	      2.36981728	     -3.11043710	      1.41913988	      2.26223156	     -5.15907938	      1.42738415	      0.29121704	     -2.23677675	      7.78267310
